# xmcd
# 
# Track frame offsets:
#     150
#     14337
#     28574
#     43479
#     61265
#     76845
#     93788
#     107246
#     122639
#     139005
#     154366
#     177004
#     193440
#     205889
# 
# Disc length: 2964
# 
# Revision: 1
# Processed by: cddbd v1.5.2PL0 Copyright (c) Steve Scherf et al.
# Submitted via: fre:ac v1.0.31
# 
DISCID=be0b920e
DTITLE=Various Artist - Schlager Hits
DYEAR=0
DGENRE=Deutsch
TTITLE0=DJ Ötzi - I sing a Lied für dich
TTITLE1=G.G. Anderson - Eine Insel für uns beide
TTITLE2=Norman Langen - Pures Gold
TTITLE3=Michelle - Frau im Spiegel
TTITLE4=Bernhard Brink - Der glücklichste Mann dieser Welt
TTITLE5=Kristina Bach - Tanz auf dem Seil
TTITLE6=Maite Kelly - So wie man tanzt, so liebt man
TTITLE7=Jürgen Drews - Wenn die Wunderkerzen brennen
TTITLE8=Ute Freudenberg and Christian Lais - Wenn du nichts bewegst
TTITLE9=Die Cappuccinos - Party auf dem Mond
TTITLE10=Gitte - Salz in der Luft1
TTITLE11=Sarah-Stephanie - Herz übernimmt Kommando
TTITLE12=Howard Carpendale - Das alles bin ich
TTITLE13=Münchener Freiheit - Seit der Nacht
EXTD=
EXTT0=
EXTT1=
EXTT2=
EXTT3=
EXTT4=
EXTT5=
EXTT6=
EXTT7=
EXTT8=
EXTT9=
EXTT10=
EXTT11=
EXTT12=
EXTT13=
PLAYORDER=
